%FSLAX44Y44*%
%MOMM*%
G71*
G01*
G75*
G04 Layer_Physical_Order=1*
G04 Layer_Color=255*
G04:AMPARAMS|DCode=10|XSize=0.8mm|YSize=0.35mm|CornerRadius=0.0438mm|HoleSize=0mm|Usage=FLASHONLY|Rotation=90.000|XOffset=0mm|YOffset=0mm|HoleType=Round|Shape=RoundedRectangle|*
%AMROUNDEDRECTD10*
21,1,0.8000,0.2625,0,0,90.0*
21,1,0.7125,0.3500,0,0,90.0*
1,1,0.0875,0.1313,0.3563*
1,1,0.0875,0.1313,-0.3563*
1,1,0.0875,-0.1313,-0.3563*
1,1,0.0875,-0.1313,0.3563*
%
%ADD10ROUNDEDRECTD10*%
%ADD11R,2.6000X2.7000*%
G04:AMPARAMS|DCode=12|XSize=0.85mm|YSize=0.35mm|CornerRadius=0.0438mm|HoleSize=0mm|Usage=FLASHONLY|Rotation=180.000|XOffset=0mm|YOffset=0mm|HoleType=Round|Shape=RoundedRectangle|*
%AMROUNDEDRECTD12*
21,1,0.8500,0.2625,0,0,180.0*
21,1,0.7625,0.3500,0,0,180.0*
1,1,0.0875,-0.3812,0.1313*
1,1,0.0875,0.3812,0.1313*
1,1,0.0875,0.3812,-0.1313*
1,1,0.0875,-0.3812,-0.1313*
%
%ADD12ROUNDEDRECTD12*%
%ADD13C,1.0160*%
%ADD14R,0.9700X1.7300*%
G04:AMPARAMS|DCode=15|XSize=1.35mm|YSize=0.6mm|CornerRadius=0.075mm|HoleSize=0mm|Usage=FLASHONLY|Rotation=90.000|XOffset=0mm|YOffset=0mm|HoleType=Round|Shape=RoundedRectangle|*
%AMROUNDEDRECTD15*
21,1,1.3500,0.4500,0,0,90.0*
21,1,1.2000,0.6000,0,0,90.0*
1,1,0.1500,0.2250,0.6000*
1,1,0.1500,0.2250,-0.6000*
1,1,0.1500,-0.2250,-0.6000*
1,1,0.1500,-0.2250,0.6000*
%
%ADD15ROUNDEDRECTD15*%
%ADD16R,1.1600X1.8200*%
%ADD17R,1.8200X1.1600*%
%ADD18R,1.7300X0.9700*%
%ADD19C,0.3500*%
%ADD20C,0.4000*%
%ADD21C,1.6000*%
%ADD22R,1.6000X1.6000*%
%ADD23C,3.2000*%
%ADD24C,0.6000*%
G36*
X270000Y300000D02*
Y300000D01*
X270107Y300100D01*
X276540Y299679D01*
X282969Y298400D01*
X289175Y296293D01*
X295054Y293394D01*
X300503Y289753D01*
X305431Y285431D01*
X309753Y280503D01*
X313394Y275054D01*
X316293Y269175D01*
X318400Y262969D01*
X319679Y256540D01*
X320100Y250107D01*
X320000Y250000D01*
X320000D01*
Y50000D01*
X320000D01*
X320100Y49893D01*
X319679Y43460D01*
X318400Y37031D01*
X316293Y30825D01*
X313394Y24946D01*
X309753Y19497D01*
X305431Y14569D01*
X300503Y10247D01*
X295054Y6606D01*
X289175Y3707D01*
X282969Y1600D01*
X276540Y321D01*
X270107Y-100D01*
X270000Y0D01*
Y0D01*
X50000D01*
Y0D01*
X49893Y-100D01*
X43460Y321D01*
X37031Y1600D01*
X30825Y3707D01*
X24946Y6606D01*
X19497Y10247D01*
X14569Y14569D01*
X10247Y19497D01*
X6606Y24946D01*
X3707Y30825D01*
X1600Y37031D01*
X321Y43460D01*
X-107Y50000D01*
X0Y250000D01*
X0D01*
X-100Y250107D01*
X321Y256540D01*
X1600Y262969D01*
X3707Y269175D01*
X6606Y275054D01*
X10247Y280503D01*
X14569Y285431D01*
X19497Y289753D01*
X24946Y293394D01*
X30825Y296293D01*
X37031Y298400D01*
X43460Y299679D01*
X50000Y300107D01*
X270000Y300000D01*
D02*
G37*
%LPC*%
G36*
X294640Y148480D02*
X284270D01*
Y141410D01*
X294640D01*
Y148480D01*
D02*
G37*
G36*
X171230Y153598D02*
X171187D01*
X170026Y153367D01*
X169041Y152709D01*
X168383Y151724D01*
X168152Y150562D01*
Y148270D01*
X171230D01*
Y153598D01*
D02*
G37*
G36*
X281730Y148480D02*
X271360D01*
Y141410D01*
X281730D01*
Y148480D01*
D02*
G37*
G36*
X250730D02*
X240360D01*
Y141410D01*
X250730D01*
Y148480D01*
D02*
G37*
G36*
X263640D02*
X253270D01*
Y141410D01*
X263640D01*
Y148480D01*
D02*
G37*
G36*
Y158090D02*
X253270D01*
Y151020D01*
X263640D01*
Y158090D01*
D02*
G37*
G36*
X281730D02*
X271360D01*
Y151020D01*
X281730D01*
Y158090D01*
D02*
G37*
G36*
X250730D02*
X240360D01*
Y151020D01*
X250730D01*
Y158090D01*
D02*
G37*
G36*
X27730Y158090D02*
X17360D01*
Y151020D01*
X27730D01*
Y158090D01*
D02*
G37*
G36*
X40640D02*
X30270D01*
Y151020D01*
X40640D01*
Y158090D01*
D02*
G37*
G36*
X92770Y45464D02*
Y36270D01*
X101964D01*
X101769Y37752D01*
X100707Y40315D01*
X99017Y42517D01*
X96816Y44207D01*
X94251Y45269D01*
X92770Y45464D01*
D02*
G37*
G36*
X302000Y92199D02*
X299628Y91727D01*
X297617Y90383D01*
X296273Y88372D01*
X295801Y86000D01*
X296273Y83628D01*
X297617Y81617D01*
X299628Y80273D01*
X302000Y79801D01*
X304372Y80273D01*
X306383Y81617D01*
X307727Y83628D01*
X308199Y86000D01*
X307727Y88372D01*
X306383Y90383D01*
X304372Y91727D01*
X302000Y92199D01*
D02*
G37*
G36*
X90230Y45464D02*
X88749Y45269D01*
X86185Y44207D01*
X83983Y42517D01*
X82293Y40315D01*
X81231Y37752D01*
X81036Y36270D01*
X90230D01*
Y45464D01*
D02*
G37*
G36*
Y33730D02*
X81036D01*
X81231Y32248D01*
X82293Y29685D01*
X83983Y27483D01*
X86185Y25793D01*
X88749Y24731D01*
X90230Y24536D01*
Y33730D01*
D02*
G37*
G36*
X101964D02*
X92770D01*
Y24536D01*
X94251Y24731D01*
X96816Y25793D01*
X99017Y27483D01*
X100707Y29685D01*
X101769Y32248D01*
X101964Y33730D01*
D02*
G37*
G36*
X27730Y148480D02*
X17360D01*
Y141410D01*
X27730D01*
Y148480D01*
D02*
G37*
G36*
X40640D02*
X30270D01*
Y141410D01*
X40640D01*
Y148480D01*
D02*
G37*
G36*
X75750Y152634D02*
X71250D01*
X70567Y152499D01*
X69988Y152112D01*
X69601Y151533D01*
X69466Y150850D01*
Y138850D01*
X69601Y138167D01*
X69988Y137588D01*
X70567Y137201D01*
X71250Y137066D01*
X75750D01*
X76433Y137201D01*
X77012Y137588D01*
X77399Y138167D01*
X77534Y138850D01*
Y150850D01*
X77399Y151533D01*
X77012Y152112D01*
X76433Y152499D01*
X75750Y152634D01*
D02*
G37*
G36*
X171230Y105730D02*
X168152D01*
Y103438D01*
X168383Y102276D01*
X169041Y101291D01*
X170026Y100633D01*
X171187Y100402D01*
X171230D01*
Y105730D01*
D02*
G37*
G36*
X66250Y130505D02*
X65270D01*
Y121150D01*
Y111796D01*
X66250D01*
X67534Y112051D01*
X68622Y112778D01*
X69058Y113430D01*
X69460Y113510D01*
X70441Y112704D01*
Y102707D01*
X64833Y97099D01*
X38037D01*
X32059Y103077D01*
Y113450D01*
X39100D01*
Y117191D01*
X50466D01*
Y115150D01*
X50602Y114467D01*
X50988Y113888D01*
X51567Y113502D01*
X52250Y113366D01*
X56750D01*
X57433Y113502D01*
X57697Y113678D01*
X58942Y113430D01*
X59378Y112778D01*
X60466Y112051D01*
X61750Y111796D01*
X62730D01*
Y121150D01*
Y130505D01*
X61750D01*
X60466Y130249D01*
X59378Y129522D01*
X58942Y128870D01*
X57697Y128622D01*
X57433Y128799D01*
X56750Y128934D01*
X52250D01*
X51567Y128799D01*
X50988Y128412D01*
X50602Y127833D01*
X50466Y127150D01*
Y123309D01*
X39100D01*
Y127050D01*
X18900D01*
Y113450D01*
X25941D01*
Y101810D01*
X25941Y101810D01*
X26174Y100639D01*
X26837Y99647D01*
X34607Y91877D01*
X34607Y91877D01*
X35202Y91480D01*
X35599Y91214D01*
X36770Y90981D01*
X63041D01*
Y44000D01*
X57100D01*
Y26000D01*
X75100D01*
Y44000D01*
X69159D01*
Y92773D01*
X75663Y99277D01*
X75663Y99277D01*
X76326Y100269D01*
X76326Y100269D01*
X76326Y100269D01*
X76559Y101440D01*
X76559Y101440D01*
Y113586D01*
X77012Y113888D01*
X77399Y114467D01*
X77534Y115150D01*
Y127150D01*
X77399Y127833D01*
X77012Y128412D01*
X76433Y128799D01*
X75750Y128934D01*
X71250D01*
X70567Y128799D01*
X70303Y128622D01*
X69058Y128870D01*
X68622Y129522D01*
X67534Y130249D01*
X66250Y130505D01*
D02*
G37*
G36*
X294640Y158090D02*
X284270D01*
Y151020D01*
X294640D01*
Y158090D01*
D02*
G37*
G36*
X149050Y228650D02*
X137350D01*
Y222059D01*
X125000D01*
X123829Y221826D01*
X122837Y221163D01*
X122837Y221163D01*
X112837Y211163D01*
X112174Y210170D01*
X111941Y209000D01*
X111941Y209000D01*
Y168059D01*
X52267D01*
X49309Y171017D01*
Y176900D01*
X53050D01*
Y197100D01*
X39450D01*
Y176900D01*
X43191D01*
Y169750D01*
X43191Y169750D01*
X43424Y168579D01*
X44087Y167587D01*
X48837Y162837D01*
X49830Y162174D01*
X51000Y161941D01*
X51441Y159735D01*
Y152414D01*
X50988Y152112D01*
X50602Y151533D01*
X50466Y150850D01*
Y138850D01*
X50602Y138167D01*
X50988Y137588D01*
X51567Y137201D01*
X52250Y137066D01*
X56750D01*
X57433Y137201D01*
X58012Y137588D01*
X58398Y138167D01*
X58534Y138850D01*
Y150850D01*
X58398Y151533D01*
X58012Y152112D01*
X57559Y152414D01*
Y161941D01*
X95941D01*
Y154650D01*
X89350D01*
Y142950D01*
X108650D01*
Y154650D01*
X102059D01*
Y161941D01*
X125733D01*
X126941Y160733D01*
Y154650D01*
X120350D01*
Y142950D01*
X139650D01*
Y154650D01*
X133059D01*
Y162000D01*
X133059Y162000D01*
X132826Y163171D01*
X132163Y164163D01*
X132163Y164163D01*
X129163Y167163D01*
X128170Y167826D01*
X127000Y168059D01*
X127000Y168059D01*
X118059D01*
Y198941D01*
X199733D01*
X200191Y198483D01*
Y195100D01*
X196450D01*
Y174900D01*
X200191D01*
Y165517D01*
X195337Y160663D01*
X194674Y159670D01*
X194441Y158500D01*
X194674Y157330D01*
X194696Y157296D01*
Y152709D01*
X193813Y152118D01*
X191187D01*
X190087Y151663D01*
D01*
Y151663D01*
X189913D01*
Y151663D01*
X188813Y152118D01*
X186187D01*
X185087Y151663D01*
D01*
Y151663D01*
X184913D01*
Y151663D01*
X183813Y152118D01*
X181187D01*
X180087Y151663D01*
D01*
Y151663D01*
X179913D01*
Y151663D01*
X178813Y152118D01*
X176354D01*
X175959Y152709D01*
X174974Y153367D01*
X173813Y153598D01*
X173770D01*
Y147000D01*
X172500D01*
Y145730D01*
X168152D01*
Y143438D01*
X168169Y143350D01*
X167363Y142368D01*
X161437D01*
X160337Y141913D01*
X159882Y140813D01*
Y138188D01*
X159595Y137759D01*
X158331Y137634D01*
X152804Y143161D01*
Y159000D01*
X152590Y160073D01*
X151983Y160983D01*
X146054Y166911D01*
Y174900D01*
X150050D01*
Y195100D01*
X136450D01*
Y174900D01*
X140446D01*
Y165750D01*
X140660Y164677D01*
X141267Y163767D01*
X141267Y163767D01*
X141267Y163767D01*
X147196Y157839D01*
Y142000D01*
X147410Y140927D01*
X148017Y140017D01*
X148017Y140017D01*
X148017Y140017D01*
X155517Y132517D01*
X155517D01*
X155517Y132517D01*
X155517D01*
X155517Y132517D01*
Y132517D01*
X155517Y132517D01*
Y132517D01*
X156427Y131910D01*
X157500Y131696D01*
X159291D01*
X159882Y130813D01*
Y128188D01*
X160337Y127087D01*
D01*
Y127087D01*
Y127087D01*
D01*
X160337Y126913D01*
X160337D01*
X159882Y125813D01*
Y123188D01*
X159595Y122759D01*
X158331Y122634D01*
X145983Y134983D01*
X145073Y135590D01*
X144000Y135804D01*
X112800D01*
X111727Y135590D01*
X110817Y134983D01*
X100885Y125050D01*
X89350D01*
Y113350D01*
X95941D01*
Y83880D01*
X95941Y83880D01*
X96174Y82710D01*
X96837Y81717D01*
X113841Y64713D01*
Y43474D01*
X112361Y42861D01*
X110481Y41419D01*
X109038Y39539D01*
X108132Y37350D01*
X107822Y35000D01*
X108132Y32650D01*
X109038Y30461D01*
X110481Y28581D01*
X112361Y27139D01*
X114551Y26232D01*
X116900Y25922D01*
X119249Y26232D01*
X121439Y27139D01*
X123319Y28581D01*
X124761Y30461D01*
X125668Y32650D01*
X125978Y35000D01*
X125668Y37350D01*
X124761Y39539D01*
X123319Y41419D01*
X121439Y42861D01*
X119959Y43474D01*
Y65980D01*
X119726Y67151D01*
X119063Y68143D01*
X119063Y68143D01*
X102059Y85147D01*
Y113350D01*
X108650D01*
Y124885D01*
X113961Y130196D01*
X142839D01*
X155517Y117517D01*
X155665Y117419D01*
X155789Y116155D01*
X140484Y100849D01*
X133059D01*
Y113350D01*
X139650D01*
Y125050D01*
X120350D01*
Y113350D01*
X126941D01*
Y97790D01*
X127174Y96620D01*
X127837Y95627D01*
X128829Y94964D01*
X130000Y94731D01*
X139241D01*
Y43474D01*
X137761Y42861D01*
X135881Y41419D01*
X134438Y39539D01*
X133532Y37350D01*
X133222Y35000D01*
X133532Y32650D01*
X134438Y30461D01*
X135881Y28581D01*
X137761Y27139D01*
X139951Y26232D01*
X142300Y25922D01*
X144649Y26232D01*
X146839Y27139D01*
X148719Y28581D01*
X150161Y30461D01*
X151068Y32650D01*
X151378Y35000D01*
X151068Y37350D01*
X150161Y39539D01*
X148719Y41419D01*
X146839Y42861D01*
X145359Y43474D01*
Y97790D01*
X145358Y97793D01*
X159261Y111696D01*
X161282D01*
X161437Y111632D01*
X167363D01*
X168169Y110650D01*
X168152Y110562D01*
Y108270D01*
X172500D01*
Y107000D01*
X173770D01*
Y100402D01*
X173813D01*
X174974Y100633D01*
X175959Y101291D01*
X176354Y101882D01*
X178813D01*
X179913Y102337D01*
X179913Y102337D01*
X180087D01*
Y102337D01*
X181187Y101882D01*
X183813D01*
X184913Y102337D01*
X184913Y102337D01*
X185087D01*
Y102337D01*
X186187Y101882D01*
X188813D01*
X189913Y102337D01*
X189913Y102337D01*
X190087D01*
Y102337D01*
X191187Y101882D01*
X193813D01*
X194696Y101291D01*
Y92022D01*
X165537Y62863D01*
X164874Y61870D01*
X164641Y60700D01*
X164641Y60700D01*
Y43474D01*
X163161Y42861D01*
X161281Y41419D01*
X159838Y39539D01*
X158932Y37350D01*
X158622Y35000D01*
X158932Y32650D01*
X159838Y30461D01*
X161281Y28581D01*
X163161Y27139D01*
X165350Y26232D01*
X167700Y25922D01*
X170049Y26232D01*
X172239Y27139D01*
X174119Y28581D01*
X175561Y30461D01*
X176468Y32650D01*
X176778Y35000D01*
X176468Y37350D01*
X175561Y39539D01*
X174119Y41419D01*
X172239Y42861D01*
X170759Y43474D01*
Y59433D01*
X199663Y88337D01*
X200326Y89330D01*
X200559Y90500D01*
X200326Y91671D01*
X200304Y91704D01*
Y103282D01*
X200368Y103438D01*
Y110562D01*
X200363Y110576D01*
X201069Y111632D01*
X208563D01*
X208718Y111696D01*
X214978D01*
X215341Y111333D01*
Y99017D01*
X190937Y74613D01*
X190274Y73621D01*
X190041Y72450D01*
X190041Y72450D01*
Y43474D01*
X188561Y42861D01*
X186681Y41419D01*
X185238Y39539D01*
X184332Y37350D01*
X184022Y35000D01*
X184332Y32650D01*
X185238Y30461D01*
X186681Y28581D01*
X188561Y27139D01*
X190751Y26232D01*
X193100Y25922D01*
X195450Y26232D01*
X197639Y27139D01*
X199519Y28581D01*
X200961Y30461D01*
X201868Y32650D01*
X202178Y35000D01*
X201868Y37350D01*
X200961Y39539D01*
X199519Y41419D01*
X197639Y42861D01*
X196159Y43474D01*
Y71183D01*
X220563Y95587D01*
X220563Y95587D01*
X221226Y96580D01*
X221226Y96580D01*
X221226Y96580D01*
X221459Y97750D01*
X221459Y97750D01*
Y112600D01*
X221226Y113771D01*
X220563Y114763D01*
X220563Y114763D01*
X219803Y115523D01*
X220053Y116127D01*
X221299Y116375D01*
X223941Y113733D01*
Y99622D01*
X223232Y98561D01*
X222922Y97000D01*
X223232Y95439D01*
X224116Y94116D01*
X225439Y93232D01*
X227000Y92922D01*
X227265Y91590D01*
X216337Y80663D01*
X215674Y79671D01*
X215441Y78500D01*
X215441Y78500D01*
Y43474D01*
X213961Y42861D01*
X212081Y41419D01*
X210639Y39539D01*
X209732Y37350D01*
X209422Y35000D01*
X209732Y32650D01*
X210639Y30461D01*
X212081Y28581D01*
X213961Y27139D01*
X216150Y26232D01*
X218500Y25922D01*
X220849Y26232D01*
X223039Y27139D01*
X224919Y28581D01*
X226361Y30461D01*
X227268Y32650D01*
X227578Y35000D01*
X227268Y37350D01*
X226361Y39539D01*
X224919Y41419D01*
X223039Y42861D01*
X221559Y43474D01*
Y77233D01*
X240163Y95837D01*
X240163Y95837D01*
X240826Y96829D01*
X240826Y96829D01*
X240826Y96830D01*
X241059Y98000D01*
X241059Y98000D01*
Y113450D01*
X241900D01*
Y113450D01*
X262100D01*
Y127050D01*
X249526D01*
X244913Y131663D01*
X243921Y132326D01*
X242750Y132559D01*
X241579Y132326D01*
X241546Y132304D01*
X212324D01*
X211598Y133188D01*
Y133230D01*
X204750D01*
Y135770D01*
X211598D01*
Y135813D01*
X212324Y136696D01*
X233978D01*
X235837Y134837D01*
X236829Y134174D01*
X238000Y133941D01*
X238000Y133941D01*
X260733D01*
X264941Y129733D01*
Y60367D01*
X247729Y43155D01*
X246250Y43768D01*
X243900Y44078D01*
X241551Y43768D01*
X239361Y42861D01*
X237481Y41419D01*
X236038Y39539D01*
X235132Y37350D01*
X234822Y35000D01*
X235132Y32650D01*
X236038Y30461D01*
X237481Y28581D01*
X239361Y27139D01*
X241551Y26232D01*
X243900Y25922D01*
X246250Y26232D01*
X248439Y27139D01*
X250319Y28581D01*
X251761Y30461D01*
X252668Y32650D01*
X252978Y35000D01*
X252668Y37350D01*
X252055Y38830D01*
X270163Y56937D01*
X270163Y56937D01*
X270826Y57930D01*
X270826Y57929D01*
X270826Y57930D01*
X271059Y59100D01*
X271059Y59100D01*
Y131000D01*
X271059Y131000D01*
X270826Y132170D01*
X270163Y133163D01*
X264163Y139163D01*
X263171Y139826D01*
X262000Y140059D01*
X262000Y140059D01*
X239267D01*
X237663Y141663D01*
X236670Y142326D01*
X235500Y142559D01*
X234329Y142326D01*
X234296Y142304D01*
X208718D01*
X208563Y142368D01*
X201069D01*
X200363Y143424D01*
X200368Y143438D01*
Y150562D01*
X200304Y150718D01*
Y156978D01*
X204517Y161191D01*
X299483D01*
X303941Y156733D01*
Y145517D01*
X285474Y127050D01*
X272900D01*
Y113450D01*
X279941D01*
Y99622D01*
X279232Y98561D01*
X278922Y97000D01*
X279232Y95439D01*
X280116Y94116D01*
X281439Y93232D01*
X283000Y92922D01*
X284561Y93232D01*
X285884Y94116D01*
X286768Y95439D01*
X287078Y97000D01*
X286768Y98561D01*
X286059Y99622D01*
Y113450D01*
X293100D01*
Y126024D01*
X309163Y142087D01*
X309826Y143080D01*
X310059Y144250D01*
X310059Y144250D01*
Y158000D01*
X310059Y158000D01*
X309826Y159171D01*
X309163Y160163D01*
X309163Y160163D01*
X302913Y166413D01*
X301921Y167076D01*
X300750Y167309D01*
X300750Y167309D01*
X206309D01*
Y174900D01*
X210050D01*
Y195100D01*
X206309D01*
Y199750D01*
X206076Y200921D01*
X205413Y201913D01*
X205413Y201913D01*
X203163Y204163D01*
X202171Y204826D01*
X201000Y205059D01*
X201000Y205059D01*
X118059D01*
Y207733D01*
X126267Y215941D01*
X137350D01*
Y209350D01*
X149050D01*
Y228650D01*
D02*
G37*
G36*
X231530Y230190D02*
X225410D01*
Y220270D01*
X231530D01*
Y230190D01*
D02*
G37*
G36*
X240190Y217730D02*
X234070D01*
Y207810D01*
X240190D01*
Y217730D01*
D02*
G37*
G36*
X84090Y198640D02*
X77020D01*
Y188270D01*
X84090D01*
Y198640D01*
D02*
G37*
G36*
X231530Y217730D02*
X225410D01*
Y207810D01*
X231530D01*
Y217730D01*
D02*
G37*
G36*
X276000Y276082D02*
X272667Y275754D01*
X269463Y274782D01*
X266510Y273203D01*
X263921Y271079D01*
X261797Y268490D01*
X260218Y265537D01*
X259246Y262333D01*
X258918Y259000D01*
X259246Y255667D01*
X260218Y252463D01*
X261797Y249510D01*
X263921Y246921D01*
X266510Y244797D01*
X269463Y243218D01*
X272667Y242246D01*
X276000Y241918D01*
X279333Y242246D01*
X282537Y243218D01*
X285490Y244797D01*
X288079Y246921D01*
X290203Y249510D01*
X291782Y252463D01*
X292754Y255667D01*
X293082Y259000D01*
X292754Y262333D01*
X291782Y265537D01*
X290203Y268490D01*
X288079Y271079D01*
X285490Y273203D01*
X282537Y274782D01*
X279333Y275754D01*
X276000Y276082D01*
D02*
G37*
G36*
X103000Y290199D02*
X100628Y289727D01*
X98617Y288383D01*
X97273Y286372D01*
X96801Y284000D01*
X97273Y281628D01*
X98617Y279617D01*
X100628Y278273D01*
X103000Y277801D01*
X105372Y278273D01*
X107383Y279617D01*
X108727Y281628D01*
X109199Y284000D01*
X108727Y286372D01*
X107383Y288383D01*
X105372Y289727D01*
X103000Y290199D01*
D02*
G37*
G36*
X44000Y276082D02*
X40667Y275754D01*
X37463Y274782D01*
X34510Y273203D01*
X31921Y271079D01*
X29797Y268490D01*
X28218Y265537D01*
X27246Y262333D01*
X26918Y259000D01*
X27246Y255667D01*
X28218Y252463D01*
X29797Y249510D01*
X31921Y246921D01*
X34510Y244797D01*
X37463Y243218D01*
X40667Y242246D01*
X44000Y241918D01*
X47333Y242246D01*
X50537Y243218D01*
X53490Y244797D01*
X56079Y246921D01*
X58203Y249510D01*
X59782Y252463D01*
X60754Y255667D01*
X61082Y259000D01*
X60754Y262333D01*
X59782Y265537D01*
X58203Y268490D01*
X56079Y271079D01*
X53490Y273203D01*
X50537Y274782D01*
X47333Y275754D01*
X44000Y276082D01*
D02*
G37*
G36*
X240190Y230190D02*
X234070D01*
Y220270D01*
X240190D01*
Y230190D01*
D02*
G37*
G36*
X209050Y228650D02*
X197350D01*
Y222059D01*
X178650D01*
Y228650D01*
X166950D01*
Y209350D01*
X178650D01*
Y215941D01*
X197350D01*
Y209350D01*
X209050D01*
Y228650D01*
D02*
G37*
G36*
X74480Y198640D02*
X67410D01*
Y188270D01*
X74480D01*
Y198640D01*
D02*
G37*
G36*
X241090Y183730D02*
X234020D01*
Y173360D01*
X241090D01*
Y183730D01*
D02*
G37*
G36*
X74480Y185730D02*
X67410D01*
Y175360D01*
X74480D01*
Y185730D01*
D02*
G37*
G36*
X231480Y183730D02*
X224410D01*
Y173360D01*
X231480D01*
Y183730D01*
D02*
G37*
G36*
X171480D02*
X164410D01*
Y173360D01*
X171480D01*
Y183730D01*
D02*
G37*
G36*
X181090D02*
X174020D01*
Y173360D01*
X181090D01*
Y183730D01*
D02*
G37*
G36*
X231480Y196640D02*
X224410D01*
Y186270D01*
X231480D01*
Y196640D01*
D02*
G37*
G36*
X241090D02*
X234020D01*
Y186270D01*
X241090D01*
Y196640D01*
D02*
G37*
G36*
X181090D02*
X174020D01*
Y186270D01*
X181090D01*
Y196640D01*
D02*
G37*
G36*
X84090Y185730D02*
X77020D01*
Y175360D01*
X84090D01*
Y185730D01*
D02*
G37*
G36*
X171480Y196640D02*
X164410D01*
Y186270D01*
X171480D01*
Y196640D01*
D02*
G37*
%LPD*%
D10*
X172500Y107000D02*
D03*
X177500D02*
D03*
X182500D02*
D03*
X187500D02*
D03*
X192500D02*
D03*
X197500D02*
D03*
Y147000D02*
D03*
X192500D02*
D03*
X187500D02*
D03*
X182500D02*
D03*
X177500D02*
D03*
X172500D02*
D03*
D11*
X185000Y127000D02*
D03*
D12*
X204750Y114500D02*
D03*
Y119500D02*
D03*
Y124500D02*
D03*
Y129500D02*
D03*
Y134500D02*
D03*
Y139500D02*
D03*
X165250D02*
D03*
Y134500D02*
D03*
Y129500D02*
D03*
Y124500D02*
D03*
Y119500D02*
D03*
Y114500D02*
D03*
D13*
X103000Y284000D02*
D03*
X302000Y86000D02*
D03*
D14*
X203200Y219000D02*
D03*
X232800D02*
D03*
X143200D02*
D03*
X172800D02*
D03*
D15*
X54500Y121150D02*
D03*
X64000D02*
D03*
X73500D02*
D03*
Y144850D02*
D03*
X54500D02*
D03*
D16*
X46250Y187000D02*
D03*
X75750D02*
D03*
X203250Y185000D02*
D03*
X232750D02*
D03*
X172750D02*
D03*
X143250D02*
D03*
D17*
X29000Y120250D02*
D03*
Y149750D02*
D03*
X252000Y120250D02*
D03*
Y149750D02*
D03*
X283000Y120250D02*
D03*
Y149750D02*
D03*
D18*
X130000Y148800D02*
D03*
Y119200D02*
D03*
X99000D02*
D03*
Y148800D02*
D03*
D19*
X204750Y114500D02*
X216500D01*
X197500Y90500D02*
Y107000D01*
X99000Y119200D02*
X112800Y133000D01*
X144000D01*
X157500Y119500D01*
X165250D01*
X197500Y147000D02*
Y158500D01*
X157500Y134500D02*
X165250D01*
X150000Y142000D02*
X157500Y134500D01*
X150000Y142000D02*
Y159000D01*
X143250Y165750D02*
X150000Y159000D01*
X143250Y165750D02*
Y185000D01*
X204750Y129500D02*
X242750D01*
X204750Y124500D02*
X227500D01*
X204750Y119500D02*
X222500D01*
X142300Y98700D02*
X158100Y114500D01*
X165250D01*
X204750Y139500D02*
X235500D01*
D20*
X167700Y60700D02*
X197500Y90500D01*
X172800Y219000D02*
X203200D01*
X99000Y165000D02*
X115000D01*
X54500D02*
X99000D01*
Y148800D02*
Y165000D01*
X130000Y148800D02*
Y162000D01*
X127000Y165000D02*
X130000Y162000D01*
X115000Y165000D02*
X127000D01*
X46250Y169750D02*
X51000Y165000D01*
X54500D01*
Y144850D02*
Y165000D01*
X115000Y209000D02*
X125000Y219000D01*
X143200D01*
X46250Y169750D02*
Y187000D01*
X29000Y120250D02*
X53600D01*
X54500Y121150D01*
X203250Y164250D02*
Y185000D01*
X197500Y158500D02*
X203250Y164250D01*
X242750Y129500D02*
X252000Y120250D01*
X216500Y114500D02*
X218400Y112600D01*
X238000Y98000D02*
Y114000D01*
X227500Y124500D02*
X238000Y114000D01*
X203250Y185000D02*
Y199750D01*
X115000Y165000D02*
Y209000D01*
Y202000D02*
X201000D01*
X203250Y199750D01*
X262000Y137000D02*
X268000Y131000D01*
Y59100D02*
Y131000D01*
X222500Y119500D02*
X227000Y115000D01*
Y97000D02*
Y115000D01*
X283000Y97000D02*
Y120250D01*
X203250Y164250D02*
X300750D01*
X307000Y158000D01*
Y144250D02*
Y158000D01*
X283000Y120250D02*
X307000Y144250D01*
X66100Y35000D02*
Y94040D01*
X73500Y101440D01*
Y121150D01*
X36770Y94040D02*
X66100D01*
X29000Y101810D02*
X36770Y94040D01*
X29000Y101810D02*
Y120250D01*
X116900Y35000D02*
Y65980D01*
X99000Y83880D02*
X116900Y65980D01*
X99000Y83880D02*
Y119200D01*
X130000Y97790D02*
Y119200D01*
Y97790D02*
X142300D01*
Y35000D02*
Y97790D01*
X167700Y35000D02*
Y60700D01*
X218400Y97750D02*
Y112600D01*
X193100Y72450D02*
X218400Y97750D01*
X193100Y35000D02*
Y72450D01*
X218500Y78500D02*
X238000Y98000D01*
X218500Y35000D02*
Y78500D01*
X243900Y35000D02*
X268000Y59100D01*
X238000Y137000D02*
X262000D01*
X235500Y139500D02*
X238000Y137000D01*
D21*
X243900Y35000D02*
D03*
X218500D02*
D03*
X193100D02*
D03*
X167700D02*
D03*
X142300D02*
D03*
X116900D02*
D03*
X91500D02*
D03*
D22*
X66100D02*
D03*
D23*
X276000Y259000D02*
D03*
X44000D02*
D03*
D24*
X227000Y97000D02*
D03*
X283000D02*
D03*
M02*
