%FSLAX44Y44*%
%MOMM*%
G71*
G01*
G75*
G04 Layer_Color=65535*
G04:AMPARAMS|DCode=10|XSize=0.8mm|YSize=0.35mm|CornerRadius=0.0438mm|HoleSize=0mm|Usage=FLASHONLY|Rotation=90.000|XOffset=0mm|YOffset=0mm|HoleType=Round|Shape=RoundedRectangle|*
%AMROUNDEDRECTD10*
21,1,0.8000,0.2625,0,0,90.0*
21,1,0.7125,0.3500,0,0,90.0*
1,1,0.0875,0.1313,0.3563*
1,1,0.0875,0.1313,-0.3563*
1,1,0.0875,-0.1313,-0.3563*
1,1,0.0875,-0.1313,0.3563*
%
%ADD10ROUNDEDRECTD10*%
%ADD11R,2.6000X2.7000*%
G04:AMPARAMS|DCode=12|XSize=0.85mm|YSize=0.35mm|CornerRadius=0.0438mm|HoleSize=0mm|Usage=FLASHONLY|Rotation=180.000|XOffset=0mm|YOffset=0mm|HoleType=Round|Shape=RoundedRectangle|*
%AMROUNDEDRECTD12*
21,1,0.8500,0.2625,0,0,180.0*
21,1,0.7625,0.3500,0,0,180.0*
1,1,0.0875,-0.3812,0.1313*
1,1,0.0875,0.3812,0.1313*
1,1,0.0875,0.3812,-0.1313*
1,1,0.0875,-0.3812,-0.1313*
%
%ADD12ROUNDEDRECTD12*%
%ADD13C,1.0160*%
%ADD14R,0.9700X1.7300*%
G04:AMPARAMS|DCode=15|XSize=1.35mm|YSize=0.6mm|CornerRadius=0.075mm|HoleSize=0mm|Usage=FLASHONLY|Rotation=90.000|XOffset=0mm|YOffset=0mm|HoleType=Round|Shape=RoundedRectangle|*
%AMROUNDEDRECTD15*
21,1,1.3500,0.4500,0,0,90.0*
21,1,1.2000,0.6000,0,0,90.0*
1,1,0.1500,0.2250,0.6000*
1,1,0.1500,0.2250,-0.6000*
1,1,0.1500,-0.2250,-0.6000*
1,1,0.1500,-0.2250,0.6000*
%
%ADD15ROUNDEDRECTD15*%
%ADD16R,1.1600X1.8200*%
%ADD17R,1.8200X1.1600*%
%ADD18R,1.7300X0.9700*%
%ADD19C,0.3500*%
%ADD20C,0.4000*%
%ADD21C,1.6000*%
%ADD22R,1.6000X1.6000*%
%ADD23C,3.2000*%
%ADD24C,0.6000*%
%ADD25C,0.2000*%
%ADD26C,0.1270*%
D25*
X168500Y97000D02*
G03*
X168500Y97000I-1000J0D01*
G01*
X55500Y107650D02*
G03*
X55500Y107650I-1000J0D01*
G01*
X66100Y54050D02*
G03*
X66100Y54050I-1000J0D01*
G01*
X313000Y259000D02*
G03*
X313000Y259000I-37000J0D01*
G01*
X81000D02*
G03*
X81000Y259000I-37000J0D01*
G01*
X28914Y173081D02*
X27248Y174747D01*
X23916D01*
X22250Y173081D01*
Y166416D01*
X23916Y164750D01*
X27248D01*
X28914Y166416D01*
X32247Y164750D02*
X35579D01*
X33913D01*
Y174747D01*
X32247Y173081D01*
X58914Y208331D02*
X57248Y209997D01*
X53916D01*
X52250Y208331D01*
Y201666D01*
X53916Y200000D01*
X57248D01*
X58914Y201666D01*
X68911Y200000D02*
X62247D01*
X68911Y206665D01*
Y208331D01*
X67245Y209997D01*
X63913D01*
X62247Y208331D01*
X252665Y193581D02*
X250998Y195247D01*
X247666D01*
X246000Y193581D01*
Y186916D01*
X247666Y185250D01*
X250998D01*
X252665Y186916D01*
X255997Y193581D02*
X257663Y195247D01*
X260995D01*
X262661Y193581D01*
Y191915D01*
X260995Y190248D01*
X259329D01*
X260995D01*
X262661Y188582D01*
Y186916D01*
X260995Y185250D01*
X257663D01*
X255997Y186916D01*
X123665Y189331D02*
X121998Y190997D01*
X118666D01*
X117000Y189331D01*
Y182666D01*
X118666Y181000D01*
X121998D01*
X123665Y182666D01*
X131995Y181000D02*
Y190997D01*
X126997Y185998D01*
X133661D01*
X279715Y173685D02*
X278048Y175351D01*
X274716D01*
X273050Y173685D01*
Y167020D01*
X274716Y165354D01*
X278048D01*
X279715Y167020D01*
X289711Y175351D02*
X283047D01*
Y170352D01*
X286379Y172019D01*
X288045D01*
X289711Y170352D01*
Y167020D01*
X288045Y165354D01*
X284713D01*
X283047Y167020D01*
X248727Y173685D02*
X247060Y175351D01*
X243728D01*
X242062Y173685D01*
Y167020D01*
X243728Y165354D01*
X247060D01*
X248727Y167020D01*
X258723Y175351D02*
X255391Y173685D01*
X252059Y170352D01*
Y167020D01*
X253725Y165354D01*
X257057D01*
X258723Y167020D01*
Y168686D01*
X257057Y170352D01*
X252059D01*
X41915Y40497D02*
X38582D01*
X40248D01*
Y32166D01*
X38582Y30500D01*
X36916D01*
X35250Y32166D01*
X45247Y30500D02*
X48579D01*
X46913D01*
Y40497D01*
X45247Y38831D01*
X201750Y244497D02*
Y234500D01*
X208414D01*
X218411Y244497D02*
X211747D01*
Y234500D01*
X218411D01*
X211747Y239498D02*
X215079D01*
X221744Y244497D02*
Y234500D01*
X226742D01*
X228408Y236166D01*
Y242831D01*
X226742Y244497D01*
X221744D01*
X231740Y234500D02*
X235073D01*
X233407D01*
Y244497D01*
X231740Y242831D01*
X151500Y230750D02*
Y240747D01*
X156498D01*
X158165Y239081D01*
Y235748D01*
X156498Y234082D01*
X151500D01*
X154832D02*
X158165Y230750D01*
X161497D02*
X164829D01*
X163163D01*
Y240747D01*
X161497Y239081D01*
X91500Y158750D02*
Y168747D01*
X96498D01*
X98165Y167081D01*
Y163748D01*
X96498Y162082D01*
X91500D01*
X94832D02*
X98165Y158750D01*
X108161D02*
X101497D01*
X108161Y165415D01*
Y167081D01*
X106495Y168747D01*
X103163D01*
X101497Y167081D01*
X122000Y158750D02*
Y168747D01*
X126998D01*
X128665Y167081D01*
Y163748D01*
X126998Y162082D01*
X122000D01*
X125332D02*
X128665Y158750D01*
X131997Y167081D02*
X133663Y168747D01*
X136995D01*
X138661Y167081D01*
Y165415D01*
X136995Y163748D01*
X135329D01*
X136995D01*
X138661Y162082D01*
Y160416D01*
X136995Y158750D01*
X133663D01*
X131997Y160416D01*
X57500Y168497D02*
Y160166D01*
X59166Y158500D01*
X62498D01*
X64165Y160166D01*
Y168497D01*
X67497Y158500D02*
X70829D01*
X69163D01*
Y168497D01*
X67497Y166831D01*
X160274Y170779D02*
Y162448D01*
X161940Y160782D01*
X165272D01*
X166938Y162448D01*
Y170779D01*
X176935Y160782D02*
X170271D01*
X176935Y167446D01*
Y169113D01*
X175269Y170779D01*
X171937D01*
X170271Y169113D01*
X58931Y65819D02*
X63644Y61106D01*
X68356D01*
Y65819D01*
X63644Y70531D01*
X71891Y76422D02*
X69534Y76422D01*
X67178Y74066D01*
Y71709D01*
X71891Y66997D01*
X74247D01*
X76603Y69353D01*
Y71709D01*
X78959Y83491D02*
X76603Y83491D01*
X74247Y81135D01*
Y78778D01*
X78959Y74066D01*
X81316D01*
X83672Y76422D01*
X83672Y78778D01*
X88822Y70603D02*
X86466D01*
X84109Y68247D01*
Y65891D01*
X88822Y61178D01*
X91178D01*
X93534Y63534D01*
Y65891D01*
X91178Y68247D01*
X88822Y65891D01*
X97069Y67069D02*
X90000Y74138D01*
X101781Y71781D01*
X94712Y78850D01*
X97069Y81206D02*
X104138Y74138D01*
X107672Y77672D01*
X107672Y80028D01*
X102959Y84741D01*
X100603Y84741D01*
X97069Y81206D01*
X115822Y70603D02*
X113466D01*
X111109Y68247D01*
Y65891D01*
X112288Y64713D01*
X114644Y64713D01*
X117000Y67069D01*
X119356Y67069D01*
X120534Y65891D01*
Y63534D01*
X118178Y61178D01*
X115822D01*
X122891Y77672D02*
X120534Y77672D01*
X118178Y75316D01*
Y72959D01*
X122891Y68247D01*
X125247D01*
X127603Y70603D01*
Y72959D01*
X124069Y81206D02*
X131138Y74138D01*
X135850Y78850D01*
X140822Y70603D02*
X138466D01*
X136109Y68247D01*
Y65891D01*
X137288Y64713D01*
X139644Y64713D01*
X142000Y67069D01*
X144356Y67069D01*
X145534Y65891D01*
Y63534D01*
X143178Y61178D01*
X140822D01*
X142000Y74138D02*
X149069Y67069D01*
X152603Y70603D01*
Y72959D01*
X147891Y77672D01*
X145534Y77672D01*
X142000Y74138D01*
X156138D02*
X151425Y78850D01*
X151425Y83563D01*
X156138Y83563D01*
X160850Y78850D01*
X157316Y82385D01*
X152603Y77672D01*
X160931Y68069D02*
X172712Y65712D01*
X165644Y72781D02*
X168000Y61000D01*
Y75138D02*
X175069Y68069D01*
X178603Y71603D01*
Y73959D01*
X173891Y78672D01*
X171534Y78672D01*
X168000Y75138D01*
X182138D02*
X177425Y79850D01*
X177425Y84563D01*
X182138Y84563D01*
X186850Y79850D01*
X183316Y83385D01*
X178603Y78672D01*
X185931Y68069D02*
X197712Y65712D01*
X190644Y72781D02*
X193000Y61000D01*
X198891Y78672D02*
X196534Y78672D01*
X194178Y76316D01*
Y73959D01*
X198891Y69247D01*
X201247D01*
X203603Y71603D01*
Y73959D01*
X200069Y82206D02*
X207138Y75138D01*
X211850Y79850D01*
X218000Y61000D02*
X213288Y65712D01*
X213288Y70425D01*
X218000Y70425D01*
X222712Y65712D01*
X219178Y69247D01*
X214466Y64534D01*
X218000Y75138D02*
X225069Y68069D01*
X228603Y71603D01*
Y73959D01*
X223891Y78672D01*
X221534Y78672D01*
X218000Y75138D01*
X226247Y81028D02*
Y83385D01*
X228603Y85741D01*
X230959Y85741D01*
X235672Y81028D01*
X235672Y78672D01*
X233316Y76316D01*
X230959D01*
X226247Y81028D01*
X236931Y68069D02*
X239287Y70425D01*
X238109Y69247D01*
X245178Y62178D01*
X244000Y61000D01*
X246356Y63356D01*
X249891Y66891D02*
X242822Y73959D01*
X254603Y71603D01*
X247534Y78672D01*
X249891Y81028D02*
X254603Y85741D01*
X252247Y83385D01*
X259316Y76316D01*
X99000Y267997D02*
Y258000D01*
X103998D01*
X105665Y259666D01*
Y266331D01*
X103998Y267997D01*
X99000D01*
X115661Y266331D02*
X113995Y267997D01*
X110663D01*
X108997Y266331D01*
Y259666D01*
X110663Y258000D01*
X113995D01*
X115661Y259666D01*
X125658Y258000D02*
X118994D01*
X125658Y264664D01*
Y266331D01*
X123992Y267997D01*
X120660D01*
X118994Y266331D01*
X128990D02*
X130656Y267997D01*
X133989D01*
X135655Y266331D01*
Y259666D01*
X133989Y258000D01*
X130656D01*
X128990Y259666D01*
Y266331D01*
X145652Y258000D02*
X138987D01*
X145652Y264664D01*
Y266331D01*
X143986Y267997D01*
X140653D01*
X138987Y266331D01*
X155648Y258000D02*
X148984D01*
X155648Y264664D01*
Y266331D01*
X153982Y267997D01*
X150650D01*
X148984Y266331D01*
X158981Y258000D02*
Y267997D01*
X162313Y264664D01*
X165645Y267997D01*
Y258000D01*
X168978D02*
Y267997D01*
X173976D01*
X175642Y266331D01*
Y262998D01*
X173976Y261332D01*
X168978D01*
X178974Y267997D02*
Y259666D01*
X180640Y258000D01*
X183973D01*
X185639Y259666D01*
Y267997D01*
X195636D02*
X192303Y266331D01*
X188971Y262998D01*
Y259666D01*
X190637Y258000D01*
X193969D01*
X195636Y259666D01*
Y261332D01*
X193969Y262998D01*
X188971D01*
X198968Y266331D02*
X200634Y267997D01*
X203966D01*
X205632Y266331D01*
Y259666D01*
X203966Y258000D01*
X200634D01*
X198968Y259666D01*
Y266331D01*
X215629Y267997D02*
X208965D01*
Y262998D01*
X212297Y264664D01*
X213963D01*
X215629Y262998D01*
Y259666D01*
X213963Y258000D01*
X210631D01*
X208965Y259666D01*
X218961Y266331D02*
X220627Y267997D01*
X223960D01*
X225626Y266331D01*
Y259666D01*
X223960Y258000D01*
X220627D01*
X218961Y259666D01*
Y266331D01*
D26*
X165000Y107000D02*
X167615D01*
X165000D02*
Y109615D01*
X205000Y107000D02*
Y109615D01*
X202385Y107000D02*
X205000D01*
X202385Y147000D02*
X205000D01*
Y144385D02*
Y147000D01*
X165000Y144385D02*
Y147000D01*
X167615D01*
X211300Y227500D02*
X224700D01*
X211300Y210500D02*
X224700D01*
X48300Y125000D02*
Y141000D01*
X79700Y125000D02*
Y141000D01*
X55300Y196000D02*
X66700D01*
X55300Y178000D02*
X66700D01*
X20000Y129300D02*
Y140700D01*
X38000Y129300D02*
Y140700D01*
X243000Y129300D02*
Y140700D01*
X261000Y129300D02*
Y140700D01*
X212300Y194000D02*
X223700D01*
X212300Y176000D02*
X223700D01*
X152300D02*
X163700D01*
X152300Y194000D02*
X163700D01*
X151300Y227500D02*
X164700D01*
X151300Y210500D02*
X164700D01*
X53400Y22300D02*
X256600D01*
Y47700D01*
X53400D02*
X256600D01*
X53400Y22300D02*
Y47700D01*
X138500Y127300D02*
Y140700D01*
X121500Y127300D02*
Y140700D01*
X90500Y127300D02*
Y140700D01*
X107500Y127300D02*
Y140700D01*
X274000Y129300D02*
Y140700D01*
X292000Y129300D02*
Y140700D01*
M02*
